<svg width="22" height="10" viewBox="0 0 22 10" fill="none" xmlns="http://www.w3.org/2000/svg">
<path d="M2.79492 9V1.8457H2.76562L0.556641 3.41602V2.12695L2.7832 0.544922H4.07812V9H2.79492ZM9.22266 9.1582C7.19531 9.1582 5.99414 7.45898 5.99414 4.76367C5.99414 2.08594 7.20703 0.386719 9.22266 0.386719C11.2441 0.386719 12.4395 2.08008 12.4395 4.75781C12.4395 7.45312 11.25 9.1582 9.22266 9.1582ZM9.22266 8.05664C10.4297 8.05664 11.1152 6.80859 11.1152 4.76367C11.1152 2.74805 10.418 1.48828 9.22266 1.48828C8.02734 1.48828 7.32422 2.75391 7.32422 4.76367C7.32422 6.80273 8.01562 8.05664 9.22266 8.05664ZM16.9043 2.55469C16.9043 3.85547 16.1836 4.6875 15.0762 4.6875C13.9629 4.6875 13.2422 3.85547 13.2422 2.55469C13.2422 1.25391 13.9629 0.421875 15.0762 0.421875C16.1836 0.421875 16.9043 1.25391 16.9043 2.55469ZM15.0762 3.86133C15.5391 3.86133 15.832 3.36328 15.832 2.54883C15.832 1.74023 15.5391 1.24219 15.0762 1.24219C14.6074 1.24219 14.3145 1.74023 14.3145 2.54883C14.3145 3.36328 14.6074 3.86133 15.0762 3.86133ZM15.0234 9H13.8633L17.1328 4.5293L20.0449 0.544922H21.1992L18.0176 4.9043L15.0234 9ZM21.8203 6.9668C21.8203 8.26758 21.1055 9.09961 19.9922 9.09961C18.8789 9.09961 18.1641 8.26758 18.1641 6.9668C18.1641 5.66016 18.8789 4.82812 19.9922 4.82812C21.1055 4.82812 21.8203 5.66016 21.8203 6.9668ZM19.9922 8.26758C20.4609 8.26758 20.748 7.77539 20.748 6.96094C20.748 6.14648 20.4609 5.6543 19.9922 5.6543C19.5234 5.6543 19.2363 6.14648 19.2363 6.96094C19.2363 7.77539 19.5234 8.26758 19.9922 8.26758Z" fill="#0DA06A"/>
</svg>
