<svg width="32" height="32" viewBox="0 0 32 32" fill="none" xmlns="http://www.w3.org/2000/svg">
<rect width="32" height="32" rx="4" fill="#EBF3FF"/>
<g clip-path="url(#clip0_845_5453)">
<path d="M22.9498 11.2499H12.6001V9.89998C12.6001 9.71819 12.4903 9.55349 12.322 9.4842C12.1537 9.4149 11.9611 9.4536 11.8315 9.58139L9.13162 12.2813C8.95613 12.4568 8.95613 12.7421 9.13162 12.9176L11.8315 15.6175C11.9611 15.7462 12.1537 15.7849 12.322 15.7156C12.4903 15.6463 12.6001 15.4816 12.6001 15.2998V13.9499H22.9498C23.1982 13.9499 23.3998 13.7483 23.3998 13.4999V11.6999C23.3998 11.4506 23.1982 11.2499 22.9498 11.2499Z" fill="#4779CC"/>
<path d="M23.2683 19.4818L20.5684 16.781C20.4397 16.6523 20.2462 16.6136 20.0779 16.6838C19.9096 16.754 19.7998 16.9178 19.7998 17.0996V18.4495H9.45017C9.20178 18.4495 9.00018 18.6511 9.00018 18.8995V20.6994C9.00018 20.9478 9.20178 21.1494 9.45017 21.1494H19.7998V22.4994C19.7998 22.6812 19.9096 22.8459 20.0779 22.9152C20.2462 22.9854 20.4397 22.9467 20.5684 22.818L23.2683 20.1181C23.4438 19.9426 23.4438 19.6573 23.2683 19.4818Z" fill="#4779CC"/>
</g>
<defs>
<clipPath id="clip0_845_5453">
<rect width="14.4" height="14.4" fill="white" transform="translate(9 9)"/>
</clipPath>
</defs>
</svg>
