<svg width="135" height="34" viewBox="0 0 135 34" fill="none" xmlns="http://www.w3.org/2000/svg">
<path d="M14.0381 25.5H1.42822V8.41016H13.7939V9.64307H5.0415V15.9297H13.2202V17.0771H5.0415V24.2671H14.0381V25.5ZM19.4946 25.5H15.9424V12.6826H19.5068C19.519 13.7568 19.4214 14.6846 19.0186 17.1626L19.2627 17.248C20.2026 13.6836 21.521 12.6094 24.5728 12.2798L24.9878 15.2461C20.3979 15.5635 19.4946 16.3813 19.4946 19.9824V25.5ZM30.1392 25.5H26.5869V12.6826H30.1514C30.1636 13.7568 30.0659 14.6846 29.6631 17.1626L29.9072 17.248C30.8472 13.6836 32.1655 12.6094 35.2173 12.2798L35.6323 15.2461C31.0425 15.5635 30.1392 16.3813 30.1392 19.9824V25.5ZM40.2832 25.793C37.7441 25.793 36.3159 24.6333 36.3159 22.668V22.5825C36.3159 20.1167 38.4644 19.2012 42.0166 18.5542L45.5566 17.9072V16.1006C45.5566 14.1597 44.7388 13.4028 43.0054 13.4028C40.979 13.4028 40.1611 14.5503 40.2222 17.541L36.6333 17.1504C36.5601 14.0376 38.6719 12.4019 43.042 12.4019C47.1924 12.4019 49.0967 13.7568 49.0967 16.6621V23.2539C49.0967 24.1572 49.5239 24.2549 50.5005 23.9253L50.3906 24.853C49.9023 25.5 49.231 25.793 48.3398 25.793C46.2402 25.793 45.6421 24.7432 45.9961 22.2651L45.752 22.2041C44.9463 24.5234 42.9077 25.793 40.2832 25.793ZM41.9189 24.0596C43.9209 24.0596 45.5566 22.5215 45.5566 20.2266V18.896L43.2983 19.3477C41.0278 19.7871 39.9048 20.4707 39.9048 22.1187V22.2285C39.9048 23.3638 40.5884 24.0596 41.9189 24.0596ZM55.5786 25.5H52.0264V12.6826H55.5908C55.5908 13.6104 55.4565 14.6602 55.1025 16.5156L55.3589 16.5889C56.189 13.6836 58.1543 12.4507 60.7666 12.4507C63.6719 12.4507 65.2344 13.8179 65.2344 16.5034V25.5H61.6821V16.8086C61.6821 14.9775 60.8398 14.1353 59.2041 14.1353C56.9214 14.1353 55.5786 16.1494 55.5786 18.8838V25.5Z" fill="#00BF63"/>
<path d="M73.0835 22.6313L75.9155 22.9243C78.7354 23.2295 80.8105 23.8032 80.8105 26.269C80.8105 28.9546 78.7598 30.0532 73.4985 30.0532C68.4937 30.0532 66.5039 29.2476 66.5039 27.2212C66.5039 25.9272 67.4927 25.2437 69.4946 25.0605V24.8774C67.9688 24.4136 67.0776 23.6079 67.0776 22.3994C67.0776 21.1055 68.0176 20.3486 69.7144 20.1655V19.9824C68.2495 19.311 67.5049 18.1514 67.5049 16.5156C67.5049 13.7935 69.6045 12.3896 73.6572 12.3896C74.5239 12.3896 75.293 12.4507 75.9766 12.585C75.4272 10.5098 76.6113 8.95947 79.8706 8.78857L80.2612 11.4619C77.2705 11.6572 76.5503 11.8281 76.6113 12.7192C78.7109 13.293 79.7852 14.5625 79.7852 16.5156C79.7852 19.2622 77.71 20.666 73.6572 20.666C72.4976 20.666 71.5088 20.5562 70.6665 20.3242C69.8975 20.4707 69.519 20.7881 69.519 21.252C69.519 22.0088 70.2515 22.3384 73.0835 22.6313ZM73.6572 13.2808C71.8384 13.2808 71.0083 14.1719 71.0083 16.5156C71.0083 18.8838 71.8384 19.7627 73.6572 19.7627C75.4639 19.7627 76.2817 18.8838 76.2817 16.5156C76.2817 14.1719 75.4639 13.2808 73.6572 13.2808ZM73.6572 29.0522C76.9653 29.0522 78.3813 28.4907 78.3813 27.1846C78.3813 26.1592 77.356 25.8296 74.6338 25.5732L71.8872 25.3047C71.3989 25.2559 70.9473 25.1948 70.5322 25.1216C69.4824 25.4512 69.0918 26.0005 69.0918 26.8306C69.0918 28.2954 70.3491 29.0522 73.6572 29.0522ZM88.3301 25.8052C83.8745 25.8052 81.2622 23.5591 81.2622 19.2622V18.9204C81.2622 14.6235 83.8745 12.3774 88.3301 12.3774C92.7612 12.3774 95.3857 14.6235 95.3857 18.9204V19.2622C95.3857 23.5591 92.7612 25.8052 88.3301 25.8052ZM88.3301 24.7554C90.4907 24.7554 91.7358 23.4126 91.7358 20.1411V18.0415C91.7358 14.77 90.4907 13.4272 88.3301 13.4272C86.1572 13.4272 84.9121 14.77 84.9121 18.0415V20.1411C84.9121 23.4126 86.1572 24.7554 88.3301 24.7554Z" fill="white"/>
<path d="M110.063 24.0479C109.646 24.3784 109.219 24.402 108.781 24.1187C108.344 23.8354 108.125 23.4104 108.125 22.8437V11.1562C108.125 10.5895 108.344 10.1702 108.781 9.89819C109.219 9.62713 109.646 9.64508 110.063 9.95202L117.812 15.8312C118.188 16.1145 118.375 16.5041 118.375 16.9999C118.375 17.4958 118.188 17.8854 117.812 18.1687L110.063 24.0479ZM122.562 24.0479C122.146 24.3784 121.719 24.402 121.281 24.1187C120.844 23.8354 120.625 23.4104 120.625 22.8437V11.1562C120.625 10.5895 120.844 10.1702 121.281 9.89819C121.719 9.62713 122.146 9.64508 122.562 9.95202L130.312 15.8312C130.688 16.1145 130.875 16.5041 130.875 16.9999C130.875 17.4958 130.688 17.8854 130.312 18.1687L122.562 24.0479Z" fill="#00BF63"/>
</svg>
