<svg width="202" height="46" viewBox="0 0 202 46" fill="none" xmlns="http://www.w3.org/2000/svg">
<path d="M22.4609 36H2.28516V8.65625H22.0703V10.6289H8.06641V20.6875H21.1523V22.5234H8.06641V34.0273H22.4609V36ZM31.1914 36H25.5078V15.4922H31.2109C31.2305 17.2109 31.0742 18.6953 30.4297 22.6602L30.8203 22.7969C32.3242 17.0938 34.4336 15.375 39.3164 14.8477L39.9805 19.5938C32.6367 20.1016 31.1914 21.4102 31.1914 27.1719V36ZM48.2227 36H42.5391V15.4922H48.2422C48.2617 17.2109 48.1055 18.6953 47.4609 22.6602L47.8516 22.7969C49.3555 17.0938 51.4648 15.375 56.3477 14.8477L57.0117 19.5938C49.668 20.1016 48.2227 21.4102 48.2227 27.1719V36ZM64.4531 36.4688C60.3906 36.4688 58.1055 34.6133 58.1055 31.4688V31.332C58.1055 27.3867 61.543 25.9219 67.2266 24.8867L72.8906 23.8516V20.9609C72.8906 17.8555 71.582 16.6445 68.8086 16.6445C65.5664 16.6445 64.2578 18.4805 64.3555 23.2656L58.6133 22.6406C58.4961 17.6602 61.875 15.043 68.8672 15.043C75.5078 15.043 78.5547 17.2109 78.5547 21.8594V32.4062C78.5547 33.8516 79.2383 34.0078 80.8008 33.4805L80.625 34.9648C79.8438 36 78.7695 36.4688 77.3438 36.4688C73.9844 36.4688 73.0273 34.7891 73.5938 30.8242L73.2031 30.7266C71.9141 34.4375 68.6523 36.4688 64.4531 36.4688ZM67.0703 33.6953C70.2734 33.6953 72.8906 31.2344 72.8906 27.5625V25.4336L69.2773 26.1562C65.6445 26.8594 63.8477 27.9531 63.8477 30.5898V30.7656C63.8477 32.582 64.9414 33.6953 67.0703 33.6953ZM88.9258 36H83.2422V15.4922H88.9453C88.9453 16.9766 88.7305 18.6562 88.1641 21.625L88.5742 21.7422C89.9023 17.0938 93.0469 15.1211 97.2266 15.1211C101.875 15.1211 104.375 17.3086 104.375 21.6055V36H98.6914V22.0938C98.6914 19.1641 97.3438 17.8164 94.7266 17.8164C91.0742 17.8164 88.9258 21.0391 88.9258 25.4141V36ZM116.934 31.4102L121.465 31.8789C125.977 32.3672 129.297 33.2852 129.297 37.2305C129.297 41.5273 126.016 43.2852 117.598 43.2852C109.59 43.2852 106.406 41.9961 106.406 38.7539C106.406 36.6836 107.988 35.5898 111.191 35.2969V35.0039C108.75 34.2617 107.324 32.9727 107.324 31.0391C107.324 28.9688 108.828 27.7578 111.543 27.4648V27.1719C109.199 26.0977 108.008 24.2422 108.008 21.625C108.008 17.2695 111.367 15.0234 117.852 15.0234C119.238 15.0234 120.469 15.1211 121.562 15.3359C120.684 12.0156 122.578 9.53516 127.793 9.26172L128.418 13.5391C123.633 13.8516 122.48 14.125 122.578 15.5508C125.938 16.4688 127.656 18.5 127.656 21.625C127.656 26.0195 124.336 28.2656 117.852 28.2656C115.996 28.2656 114.414 28.0898 113.066 27.7188C111.836 27.9531 111.23 28.4609 111.23 29.2031C111.23 30.4141 112.402 30.9414 116.934 31.4102ZM117.852 16.4492C114.941 16.4492 113.613 17.875 113.613 21.625C113.613 25.4141 114.941 26.8203 117.852 26.8203C120.742 26.8203 122.051 25.4141 122.051 21.625C122.051 17.875 120.742 16.4492 117.852 16.4492ZM117.852 41.6836C123.145 41.6836 125.41 40.7852 125.41 38.6953C125.41 37.0547 123.77 36.5273 119.414 36.1172L115.02 35.6875C114.238 35.6094 113.516 35.5117 112.852 35.3945C111.172 35.9219 110.547 36.8008 110.547 38.1289C110.547 40.4727 112.559 41.6836 117.852 41.6836ZM141.328 36.4883C134.199 36.4883 130.02 32.8945 130.02 26.0195V25.4727C130.02 18.5977 134.199 15.0039 141.328 15.0039C148.418 15.0039 152.617 18.5977 152.617 25.4727V26.0195C152.617 32.8945 148.418 36.4883 141.328 36.4883ZM141.328 34.8086C144.785 34.8086 146.777 32.6602 146.777 27.4258V24.0664C146.777 18.832 144.785 16.6836 141.328 16.6836C137.852 16.6836 135.859 18.832 135.859 24.0664V27.4258C135.859 32.6602 137.852 34.8086 141.328 34.8086Z" fill="black"/>
<path d="M168.75 31.2919C168.194 31.6808 167.625 31.7085 167.042 31.3752C166.458 31.0419 166.167 30.5419 166.167 29.8752V16.1252C166.167 15.4585 166.458 14.9652 167.042 14.6452C167.625 14.3263 168.194 14.3474 168.75 14.7085L179.083 21.6252C179.583 21.9585 179.833 22.4169 179.833 23.0002C179.833 23.5835 179.583 24.0419 179.083 24.3752L168.75 31.2919ZM185.417 31.2919C184.861 31.6808 184.292 31.7085 183.708 31.3752C183.125 31.0419 182.833 30.5419 182.833 29.8752V16.1252C182.833 15.4585 183.125 14.9652 183.708 14.6452C184.292 14.3263 184.861 14.3474 185.417 14.7085L195.75 21.6252C196.25 21.9585 196.5 22.4169 196.5 23.0002C196.5 23.5835 196.25 24.0419 195.75 24.3752L185.417 31.2919Z" fill="#00BF63"/>
</svg>
