<svg width="17" height="18" viewBox="0 0 17 18" fill="none" xmlns="http://www.w3.org/2000/svg">
<path fill-rule="evenodd" clip-rule="evenodd" d="M16.0918 4.4637C15.6776 4.4637 15.3418 4.12792 15.3418 3.7137V2.77267L12.9036 5.27256C12.6144 5.56909 12.1396 5.57502 11.843 5.28581C11.5465 4.9966 11.5406 4.52177 11.8298 4.22524L14.4877 1.5L13.2013 1.5C12.787 1.5 12.4513 1.16421 12.4513 0.75C12.4513 0.335786 12.787 0 13.2013 0H16.0918C16.506 0 16.8418 0.335787 16.8418 0.75V3.7137C16.8418 4.12792 16.506 4.4637 16.0918 4.4637ZM1.5 9.0473C1.5 5.35382 4.41917 2.38805 7.97631 2.38805C8.39052 2.38805 8.72631 2.05226 8.72631 1.63805C8.72631 1.22384 8.39052 0.888049 7.97631 0.888049C3.55561 0.888049 0 4.56097 0 9.0473C0 13.5336 3.55561 17.2066 7.97631 17.2066C12.397 17.2066 15.9526 13.5336 15.9526 9.0473C15.9526 8.63309 15.6168 8.2973 15.2026 8.2973C14.7884 8.2973 14.4526 8.63309 14.4526 9.0473C14.4526 12.7408 11.5335 15.7066 7.97631 15.7066C4.41917 15.7066 1.5 12.7408 1.5 9.0473ZM5.7842 9.04613V12.0088H6.9278V9.04613H7.83079L8.99674 12.0088H10.4808V9.04613H11.1792V8.29427H10.4808V5.34051H9.3372V8.29427H8.443L7.2508 5.34051H5.7842V8.29427H5.08582V9.04613H5.7842ZM6.9278 8.29427H7.53489L6.9278 6.75163V8.29427ZM8.74647 9.04613L9.3372 10.5097V9.04613H8.74647Z" fill="black"/>
</svg>
