<svg width="20" height="20" viewBox="0 0 20 20" fill="none" xmlns="http://www.w3.org/2000/svg">
<path d="M4.99898 9.28601H4.98898C4.79949 9.28601 4.61774 9.36128 4.48375 9.49527C4.34975 9.62926 4.27448 9.81102 4.27448 10.0005C4.27448 10.19 4.34975 10.3717 4.48375 10.5057C4.61774 10.6397 4.79949 10.715 4.98898 10.715H15.009C15.1985 10.715 15.3802 10.6397 15.5142 10.5057C15.6482 10.3717 15.7235 10.19 15.7235 10.0005C15.7235 9.81102 15.6482 9.62926 15.5142 9.49527C15.3802 9.36128 15.1985 9.28601 15.009 9.28601H4.99898Z" fill="#00BF63"/>
<path d="M10.714 5.00002V4.99001C10.714 4.80052 10.6388 4.61878 10.5048 4.48479C10.3708 4.35079 10.189 4.27551 9.99954 4.27551C9.81005 4.27551 9.62829 4.35079 9.49429 4.48479C9.3603 4.61878 9.28503 4.80052 9.28503 4.99001V5.00101V15.011C9.28503 15.2005 9.3603 15.3822 9.49429 15.5162C9.62829 15.6502 9.81005 15.7255 9.99954 15.7255C10.189 15.7255 10.3708 15.6502 10.5048 15.5162C10.6388 15.3822 10.714 15.2005 10.714 15.011V15V5.00002Z" fill="#00BF63"/>
<path d="M10 0C8.02219 0 6.08879 0.58649 4.4443 1.6853C2.7998 2.78412 1.51808 4.3459 0.761206 6.17317C0.00432998 8.00043 -0.1937 10.0111 0.192153 11.9509C0.578005 13.8907 1.53041 15.6725 2.92893 17.0711C4.32746 18.4696 6.10929 19.422 8.0491 19.8079C9.98891 20.1937 11.9996 19.9957 13.8268 19.2388C15.6541 18.4819 17.2159 17.2002 18.3147 15.5557C19.4135 13.9112 20 11.9778 20 10C19.9971 7.34873 18.9426 4.80688 17.0679 2.93215C15.1931 1.05742 12.6513 0.0029116 10 0ZM10 1.429C11.6954 1.429 13.3528 1.93176 14.7625 2.87371C16.1721 3.81566 17.2708 5.15448 17.9196 6.72087C18.5684 8.28726 18.7381 10.0108 18.4072 11.6737C18.0764 13.3365 17.2599 14.8639 16.061 16.0627C14.862 17.2614 13.3346 18.0778 11.6717 18.4084C10.0088 18.7391 8.28526 18.5692 6.71895 17.9202C5.15264 17.2713 3.81394 16.1724 2.87216 14.7626C1.93038 13.3528 1.4278 11.6954 1.428 10C1.42668 8.87399 1.64752 7.75877 2.07785 6.71823C2.50818 5.67769 3.13955 4.73226 3.93581 3.9361C4.73206 3.13993 5.67757 2.50867 6.71816 2.07846C7.75875 1.64825 8.87399 1.42755 10 1.429Z" fill="#00BF63"/>
</svg>
