<svg width="32" height="32" viewBox="0 0 32 32" fill="none" xmlns="http://www.w3.org/2000/svg">
<rect width="32" height="32" rx="4" fill="#E9FAEB"/>
<path d="M22.2245 12.8357C22.0584 12.8357 21.9235 12.9706 21.9235 13.1367C21.9235 13.3028 22.0584 13.4376 22.2245 13.4376C22.3906 13.4376 22.5254 13.3028 22.5254 13.1367C22.5254 12.9706 22.3906 12.8357 22.2245 12.8357Z" fill="#0DA06A"/>
<path d="M22.2249 8C19.4036 8 17.0882 10.3153 17.0882 13.1367C17.0882 15.958 19.4036 18.2734 22.2249 18.2734C25.0463 18.2734 27.3616 15.958 27.3616 13.1367C27.3616 10.3153 25.0463 8 22.2249 8ZM22.2249 16.4474C20.3994 16.4474 18.9142 14.9622 18.9142 13.1367C18.9142 11.3111 20.3994 9.82593 22.2249 9.82593C24.0504 9.82593 25.5357 11.3111 25.5357 13.1367C25.5357 14.9622 24.0504 16.4474 22.2249 16.4474Z" fill="#0DA06A"/>
<path d="M23.639 11.9749L24.1386 11.2225C23.8076 10.8913 23.3922 10.6446 22.9288 10.5242L22.5254 11.3308H21.9235L21.5202 10.5242C21.0567 10.6446 20.6413 10.8913 20.3103 11.2225L20.8099 11.9749L20.509 12.4925L19.606 12.4384C19.5458 12.6611 19.5157 12.8959 19.5157 13.1366C19.5157 13.3774 19.5458 13.6122 19.6059 13.8349L20.5089 13.7808L20.8099 14.2984L20.3103 15.0508C20.6413 15.3819 21.0567 15.6287 21.5201 15.7491L21.9235 14.9425H22.5254L22.9287 15.7491C23.3922 15.6287 23.8076 15.3819 24.1386 15.0508L23.639 14.2984L23.9399 13.7808L24.8429 13.8349C24.9031 13.6122 24.9332 13.3774 24.9332 13.1366C24.9332 12.8959 24.9031 12.6611 24.843 12.4384L23.94 12.4925L23.639 11.9749ZM22.2245 14.0396C21.7266 14.0396 21.3215 13.6345 21.3215 13.1366C21.3215 12.6388 21.7266 12.2337 22.2245 12.2337C22.7223 12.2337 23.1274 12.6388 23.1274 13.1366C23.1274 13.6345 22.7223 14.0396 22.2245 14.0396Z" fill="#0DA06A"/>
<path d="M11.2374 16.57C12.9598 16.57 14.356 14.9748 14.356 13.0071C14.356 11.0393 12.9598 9.44409 11.2374 9.44409C9.51494 9.44409 8.11865 11.0393 8.11865 13.0071C8.11865 14.9748 9.51494 16.57 11.2374 16.57Z" fill="#0DA06A"/>
<path d="M17.4747 21.8394C17.4747 24.004 14.2994 23.2646 11.2373 23.2646C8.17521 23.2646 4.99988 24.004 4.99988 21.8394C4.99988 19.6749 8.17521 17.9202 11.2373 17.9202C14.2994 17.9202 17.4747 19.6749 17.4747 21.8394Z" fill="#0DA06A"/>
</svg>
