<svg width="20" height="19" viewBox="0 0 20 19" fill="none" xmlns="http://www.w3.org/2000/svg">
<path d="M6.23765 11.77C7.96006 11.77 9.35635 10.1748 9.35635 8.20702C9.35635 6.23924 7.96006 4.64404 6.23765 4.64404C4.51524 4.64404 3.11895 6.23924 3.11895 8.20702C3.11895 10.1748 4.51524 11.77 6.23765 11.77Z" fill="#FB7E15"/>
<path d="M12.475 17.0394C12.475 19.204 9.29967 18.4646 6.23759 18.4646C3.17553 18.4646 0.000198364 19.204 0.000198364 17.0394C0.000198364 14.8748 3.17553 13.1201 6.23759 13.1201C9.29967 13.1201 12.475 14.8748 12.475 17.0394Z" fill="#FB7E15"/>
<path d="M19.9652 4.62078C19.9418 4.58213 19.9079 4.54998 19.8669 4.52761C19.8259 4.50524 19.7793 4.49345 19.7319 4.49345H16.2182L16.8073 0.278955C16.8136 0.222551 16.7994 0.165796 16.7671 0.117828C16.7348 0.0698602 16.6862 0.0334712 16.6291 0.0145198C16.572 -0.0044316 16.5098 -0.00484259 16.4524 0.013353C16.3951 0.0315486 16.3459 0.0672919 16.3129 0.114828L12.0398 7.12457C12.0148 7.16262 12.0011 7.20623 12.0002 7.25089C11.9992 7.29555 12.0109 7.33966 12.0342 7.37865C12.0575 7.41764 12.0914 7.45012 12.1326 7.47272C12.1737 7.49533 12.2206 7.50725 12.2683 7.50726H15.7295L15.2626 11.7281C15.2581 11.7843 15.2737 11.8403 15.307 11.8873C15.3404 11.9342 15.3895 11.9694 15.4466 11.9871C15.5038 12.0049 15.5656 12.0043 15.6223 11.9853C15.679 11.9664 15.7274 11.9302 15.7596 11.8826L19.962 4.87363C19.9864 4.83552 19.9995 4.79203 20.0001 4.74761C20.0006 4.70319 19.9886 4.65943 19.9652 4.62078Z" fill="#FB7E15"/>
</svg>
