<svg width="19" height="18" viewBox="0 0 19 18" fill="none" xmlns="http://www.w3.org/2000/svg">
<path d="M1 9.59908V8.13242C1 7.26575 1.70833 6.54908 2.58333 6.54908C4.09167 6.54908 4.70833 5.48242 3.95 4.17408C3.51667 3.42408 3.775 2.44908 4.53333 2.01575L5.975 1.19075C6.63333 0.799084 7.48333 1.03242 7.875 1.69075L7.96667 1.84908C8.71667 3.15742 9.95 3.15742 10.7083 1.84908L10.8 1.69075C11.1917 1.03242 12.0417 0.799084 12.7 1.19075L14.1417 2.01575C14.9 2.44908 15.1583 3.42408 14.725 4.17408C13.9667 5.48242 14.5833 6.54908 16.0917 6.54908C16.9583 6.54908 17.675 7.25742 17.675 8.13242V9.59908C17.675 10.4658 16.9667 11.1824 16.0917 11.1824C14.5833 11.1824 13.9667 12.2491 14.725 13.5574C15.1583 14.3157 14.9 15.2824 14.1417 15.7158L12.7 16.5408C12.0417 16.9324 11.1917 16.6991 10.8 16.0408L10.7083 15.8824C9.95833 14.5741 8.725 14.5741 7.96667 15.8824L7.875 16.0408C7.48333 16.6991 6.63333 16.9324 5.975 16.5408L4.53333 15.7158C3.775 15.2824 3.51667 14.3074 3.95 13.5574C4.70833 12.2491 4.09167 11.1824 2.58333 11.1824C1.70833 11.1824 1 10.4658 1 9.59908Z" stroke="black" stroke-width="2" stroke-miterlimit="10" stroke-linecap="round" stroke-linejoin="round"/>
</svg>
